<svg width="151" height="171" viewBox="0 0 151 171" fill="none" xmlns="http://www.w3.org/2000/svg">
<path d="M125.766 74.8125V75.3125H126.266H134.281C142.856 75.3125 149.812 82.2693 149.812 90.8438V154.969C149.812 163.543 142.856 170.5 134.281 170.5H16.7188C8.14431 170.5 1.1875 163.543 1.1875 154.969V90.8438C1.1875 82.2693 8.14431 75.3125 16.7188 75.3125H24.7344H25.2344V74.8125V50.7656C25.2344 23.0539 47.7882 0.5 75.5 0.5C103.212 0.5 125.766 23.0539 125.766 50.7656V74.8125ZM99.5469 75.3125H100.047V74.8125V50.7656C100.047 37.2303 89.0353 26.2188 75.5 26.2188C61.9647 26.2188 50.9531 37.2303 50.9531 50.7656V74.8125V75.3125H51.4531H99.5469Z" fill="#808080" fill-opacity="0.55" stroke="#868C98"/>
</svg>
