<svg width="263" height="263" viewBox="0 0 263 263" fill="none" xmlns="http://www.w3.org/2000/svg">
<path d="M131.851 40.5884V65.5328C130.299 65.5888 128.775 65.7144 127.265 65.8964C99.2029 69.2521 77.4464 93.1199 77.4464 122.091C77.4464 122.581 77.4464 123.056 77.4604 123.545H48.8948C48.8948 79.2636 83.5707 43.0913 127.265 40.7143C128.775 40.6303 130.313 40.5884 131.851 40.5884Z" fill="#808080" fill-opacity="0.55" stroke="#868C98" stroke-linecap="round" stroke-linejoin="round"/>
<path d="M214.808 123.545H190.646C190.66 123.07 190.66 122.581 190.66 122.091C190.66 121 190.632 119.91 190.562 118.847C190.059 109.773 187.402 101.271 183.124 93.847C182.187 92.2109 181.166 90.645 180.076 89.1208L199.371 75.3345C200.462 76.8583 201.51 78.4246 202.475 80.0187C207.327 87.8625 210.907 96.5734 212.906 105.871C213.829 110.08 214.43 114.415 214.668 118.847C214.766 120.399 214.808 121.965 214.808 123.545Z" fill="white" stroke="#868C98" stroke-linecap="round" stroke-linejoin="round"/>
<path d="M107.703 93.8718L119.618 105.773" stroke="#868C98" stroke-linecap="round" stroke-linejoin="round"/>
<path d="M119.613 93.865L107.711 105.78" stroke="#868C98" stroke-linecap="round" stroke-linejoin="round"/>
<path d="M144.08 93.8508L155.996 105.752" stroke="#868C98" stroke-linecap="round" stroke-linejoin="round"/>
<path d="M155.99 93.8438L144.089 105.759" stroke="#868C98" stroke-linecap="round" stroke-linejoin="round"/>
<path d="M115.147 118.018L146.023 118" stroke="#868C98" stroke-linecap="round" stroke-linejoin="round"/>
<path d="M207.621 76.3375L202.475 80.0147L183.124 93.8434C182.187 92.2076 181.166 90.6413 180.076 89.1175C169.799 74.7994 153.02 65.4873 134.06 65.4873C133.319 65.4873 132.578 65.5012 131.851 65.5293C130.299 65.5853 128.775 65.7108 127.265 65.8929V34.9919C160.375 34.9919 189.71 51.3095 207.621 76.3375Z" fill="#E2E4E9" stroke="#868C98" stroke-linecap="round" stroke-linejoin="round"/>
<path d="M226.539 123.546H190.661C190.759 120.484 190.605 117.393 190.185 114.261C190.115 113.786 190.045 113.296 189.961 112.821C189.794 111.745 189.598 110.668 189.36 109.633L212.906 105.872L225.113 103.928C226.162 110.528 226.623 117.086 226.539 123.546Z" fill="#868C98" stroke="#868C98" stroke-linecap="round" stroke-linejoin="round"/>
<path d="M71.2336 170.215C79.0843 170.215 85.4484 163.851 85.4484 156C85.4484 148.149 79.0843 141.785 71.2336 141.785C63.383 141.785 57.0188 148.149 57.0188 156C57.0188 163.851 63.383 170.215 71.2336 170.215Z" stroke="#868C98" stroke-linecap="round" stroke-linejoin="round"/>
<path d="M71.2336 162.172C74.6422 162.172 77.4055 159.409 77.4055 156C77.4055 152.591 74.6422 149.828 71.2336 149.828C67.825 149.828 65.0618 152.591 65.0618 156C65.0618 159.409 67.825 162.172 71.2336 162.172Z" fill="#CDD0D5"/>
<path d="M131.387 171.205C139.237 171.205 145.602 164.841 145.602 156.99C145.602 149.139 139.237 142.775 131.387 142.775C123.536 142.775 117.172 149.139 117.172 156.99C117.172 164.841 123.536 171.205 131.387 171.205Z" stroke="#868C98" stroke-linecap="round" stroke-linejoin="round"/>
<path d="M131.387 163.162C134.795 163.162 137.559 160.399 137.559 156.99C137.559 153.581 134.795 150.818 131.387 150.818C127.978 150.818 125.215 153.581 125.215 156.99C125.215 160.399 127.978 163.162 131.387 163.162Z" fill="#868C98"/>
<path d="M191.54 171.205C199.39 171.205 205.755 164.841 205.755 156.99C205.755 149.139 199.39 142.775 191.54 142.775C183.689 142.775 177.325 149.139 177.325 156.99C177.325 164.841 183.689 171.205 191.54 171.205Z" stroke="#868C98" stroke-linecap="round" stroke-linejoin="round"/>
<path d="M191.54 163.162C194.948 163.162 197.712 160.399 197.712 156.99C197.712 153.582 194.948 150.818 191.54 150.818C188.131 150.818 185.368 153.582 185.368 156.99C185.368 160.399 188.131 163.162 191.54 163.162Z" fill="#E2E4E9"/>
<path d="M151.867 185.453H114.342V195.444H151.867V185.453Z" fill="#E2E4E9"/>
<path d="M147.447 205.569H118.763V215.56H147.447V205.569Z" fill="#CDD0D5"/>
<path d="M206.289 205.569H177.605V215.56H206.289V205.569Z" fill="#CDD0D5"/>
<path d="M86.3579 205.569H57.6738V215.56H86.3579V205.569Z" fill="#CDD0D5"/>
<path d="M210.709 185.453H173.184V195.444H210.709V185.453Z" fill="#E2E4E9"/>
<path d="M90.7791 185.453H53.2544V195.444H90.7791V185.453Z" fill="#E2E4E9"/>
<path d="M20.1723 32.137C20.1723 32.137 28.5193 44.2567 40.6258 35.9795C28.5191 44.2569 36.7833 56.433 36.7833 56.433C36.7833 56.433 28.4363 44.3133 16.3296 52.5907C28.4363 44.3133 20.1723 32.137 20.1723 32.137Z" fill="white" stroke="#868C98" stroke-linecap="round" stroke-linejoin="round"/>
<path d="M234.404 198.335C234.404 198.335 231.736 212.807 246.15 215.515C231.736 212.807 228.97 227.261 228.97 227.261C228.97 227.261 231.638 212.788 217.224 210.081C231.638 212.788 234.404 198.335 234.404 198.335Z" fill="white" stroke="#868C98" stroke-linecap="round" stroke-linejoin="round"/>
</svg>
