<svg width="41" height="41" viewBox="0 0 41 41" fill="none" xmlns="http://www.w3.org/2000/svg">
<path d="M27.3333 16.2292H30.75C32.1092 16.2292 33.4128 16.7691 34.3739 17.7302C35.335 18.6914 35.875 19.9949 35.875 21.3542V28.1875C35.875 29.5467 35.335 30.8503 34.3739 31.8114C33.4128 32.7725 32.1092 33.3125 30.75 33.3125H10.25C8.89077 33.3125 7.5872 32.7725 6.62608 31.8114C5.66495 30.8503 5.125 29.5467 5.125 28.1875V21.3542C5.125 19.9949 5.66495 18.6914 6.62608 17.7302C7.5872 16.7691 8.89077 16.2292 10.25 16.2292H13.6667" stroke="#000D26" stroke-width="1.5" stroke-linecap="round" stroke-linejoin="round"/>
<path d="M20.0388 28.1875V7.6875" stroke="#000D26" stroke-width="1.5" stroke-linecap="round" stroke-linejoin="round"/>
<path d="M26.1887 22.0375L20.0387 28.1875L13.8887 22.0375" stroke="#000D26" stroke-width="1.5" stroke-linecap="round" stroke-linejoin="round"/>
</svg>
