<svg width="24" height="24" viewBox="0 0 24 24" fill="none" xmlns="http://www.w3.org/2000/svg">
<path fill-rule="evenodd" clip-rule="evenodd" d="M9.04004 6.75C9.04004 4.95507 10.4053 3.5 12.0894 3.5C13.7736 3.5 15.1388 4.95507 15.1388 6.75V8H9.04004V6.75ZM7.63263 8.0702V6.75C7.63263 4.12665 9.62801 2 12.0894 2C14.5508 2 16.5462 4.12665 16.5462 6.75V8.0702C18.2826 8.42125 19.5956 10.0472 19.5956 12V18C19.5956 20.2091 17.9153 22 15.8425 22H8.33634C6.26357 22 4.58325 20.2091 4.58325 18V12C4.58325 10.0472 5.89623 8.42125 7.63263 8.0702ZM13.966 15C13.966 16.1046 13.1258 17 12.0894 17C11.053 17 10.2129 16.1046 10.2129 15C10.2129 13.8954 11.053 13 12.0894 13C13.1258 13 13.966 13.8954 13.966 15Z" fill="#8E8E93"/>
</svg>
