<svg width="34" height="37" viewBox="0 0 34 37" fill="none" xmlns="http://www.w3.org/2000/svg">
<path fill-rule="evenodd" clip-rule="evenodd" d="M9.05259 4.18602C11.3965 2.45119 14.4754 4.04165 14.932 6.96273H19.5027C21.6118 6.96273 23.3215 8.86085 23.3215 11.2023C23.3215 11.8409 22.8552 12.3586 22.28 12.3586C21.7048 12.3586 21.2385 11.8409 21.2385 11.2023C21.2385 10.138 20.4614 9.27523 19.5027 9.27523H14.9896V28.5461H19.5027C20.4614 28.5461 21.2385 27.6833 21.2385 26.619C21.2385 25.9804 21.7048 25.4627 22.28 25.4627C22.8552 25.4627 23.3215 25.9804 23.3215 26.619C23.3215 28.9604 21.6118 30.8586 19.5027 30.8586H14.932C14.4754 33.7796 11.3965 35.3701 9.05259 33.6353L6.27531 31.5797C5.21293 30.7934 4.57481 29.4697 4.57481 28.0522V9.76913C4.57481 8.35161 5.21293 7.02788 6.27531 6.24158L9.05259 4.18602ZM21.6276 15.0097C22.0343 15.4612 22.0343 16.1933 21.6276 16.6449L20.6282 17.7544L27.8344 17.7544C28.4095 17.7544 28.8758 18.272 28.8758 18.9106C28.8758 19.5492 28.4095 20.0669 27.8344 20.0669H20.6282L21.6276 21.1764C22.0343 21.6279 22.0343 22.36 21.6276 22.8115C21.2209 23.2631 20.5614 23.2631 20.1547 22.8115L18.3593 20.8183C17.4103 19.7647 17.4103 18.0565 18.3593 17.0029L20.1547 15.0097C20.5614 14.5582 21.2209 14.5582 21.6276 15.0097Z" fill="#EBEDF0"/>
</svg>
