<svg width="47" height="62" viewBox="0 0 47 62" fill="none" xmlns="http://www.w3.org/2000/svg">
<path d="M22.027 31.0121C21.4215 29.0746 21.4336 25.3328 21.7848 25.3328C22.802 25.3328 22.7051 29.8012 22.027 31.0121ZM21.8211 36.7277C20.8887 39.1738 19.7262 41.9711 18.382 44.3203C20.598 43.4727 23.1047 42.2375 25.9988 41.6684C24.4609 40.5059 22.9836 38.8348 21.8211 36.7277ZM10.4262 51.8402C10.4262 51.9371 12.0246 51.1863 14.6523 46.9723C13.841 47.7352 11.1285 49.9391 10.4262 51.8402ZM30.0312 19.375H46.5V59.0938C46.5 60.7043 45.2043 62 43.5938 62H2.90625C1.2957 62 0 60.7043 0 59.0938V2.90625C0 1.2957 1.2957 0 2.90625 0H27.125V16.4688C27.125 18.0672 28.4328 19.375 30.0312 19.375ZM29.0625 40.1789C26.6406 38.7016 25.0301 36.6672 23.8918 33.6641C24.4367 31.4238 25.2965 28.0211 24.6426 25.8898C24.0734 22.3297 19.5082 22.6809 18.8543 25.0664C18.2488 27.2824 18.8059 30.4066 19.8352 34.3906C18.4305 37.7328 16.3598 42.2133 14.8945 44.7805C14.8824 44.7805 14.8824 44.7926 14.8703 44.7926C11.5887 46.4758 5.95781 50.1812 8.2707 53.027C8.94883 53.8625 10.2082 54.2379 10.8742 54.2379C13.0418 54.2379 15.1973 52.0582 18.273 46.7543C21.3973 45.725 24.8242 44.4414 27.8395 43.9449C30.4672 45.3738 33.543 46.3062 35.5895 46.3062C39.1254 46.3062 39.3676 42.4313 37.975 41.0508C36.2918 39.4039 31.3996 39.8762 29.0625 40.1789ZM45.6523 12.7148L33.7852 0.847656C33.2402 0.302734 32.5016 0 31.7266 0H31V15.5H46.5V14.7613C46.5 13.9984 46.1973 13.2598 45.6523 12.7148ZM36.6793 43.6301C37.1758 43.3031 36.3766 42.1891 31.4965 42.5402C35.9891 44.4535 36.6793 43.6301 36.6793 43.6301Z" fill="black" fill-opacity="0.45"/>
</svg>
